<svg width="108" height="107" viewBox="0 0 108 107" fill="none" xmlns="http://www.w3.org/2000/svg">
<path d="M106.5 53.5C106.5 82.2057 83.0081 105.5 54 105.5C24.9919 105.5 1.5 82.2057 1.5 53.5C1.5 24.7943 24.9919 1.5 54 1.5C83.0081 1.5 106.5 24.7943 106.5 53.5Z" stroke="#AD812B" stroke-width="3"/>
<ellipse cx="54" cy="53.5" rx="49" ry="48.5" fill="#D9D9D9"/>
<g clip-path="url(#clip0_383_207)">
<path d="M57.4875 72.2346C56.9715 72.5578 56.4762 72.9209 55.9357 73.1926C55.3979 73.463 54.8122 73.642 54.2189 73.8725C53.9016 73.2261 53.6255 72.6595 53.3224 72.0428C53.1753 72.2308 53.0618 72.402 52.9212 72.5475C52.8271 72.6428 52.6994 72.7548 52.5768 72.7664C51.314 72.8784 50.0499 72.9866 48.7845 73.0639C48.3769 73.0883 47.9628 73.0252 47.5539 72.9879C47.4649 72.9802 47.3424 72.939 47.3011 72.8733C47.1953 72.7007 47.4688 71.999 47.6687 71.9089C48.1357 71.7003 48.6091 71.5071 49.0747 71.2947C49.1766 71.2483 49.3185 71.1633 49.334 71.0758C49.4617 70.3792 49.5649 69.6787 49.6784 68.955C49.3869 68.9009 49.1121 68.8675 48.8477 68.7954C48.4388 68.6859 48.3717 68.5404 48.502 68.1425C48.7832 67.2863 49.4166 66.8356 50.255 66.6193C50.3943 66.5832 50.5349 66.5549 50.6961 66.5188V66.0849C50.1518 66.1261 49.6229 66.1583 49.0954 66.2098C48.3537 66.2819 47.6107 66.3514 46.8729 66.4557C46.5349 66.5034 46.4124 66.3965 46.3427 66.072C46.0241 64.5861 45.681 63.1053 45.3469 61.6232C45.3379 61.582 45.3237 61.5408 45.2966 61.4455C44.3408 62.6237 43.0186 62.9444 41.6655 63.1993C41.6371 63.1761 41.6088 63.153 41.5791 63.1298C41.7584 62.7061 41.9196 62.2748 42.1221 61.8615C42.3956 61.3026 42.7078 60.7644 42.9877 60.2081C43.1489 59.8875 43.0947 59.7652 42.74 59.6905C42.482 59.6364 42.2086 59.6648 41.9454 59.63C41.8306 59.6145 41.6771 59.5605 41.6217 59.4729C39.9964 56.9221 38.3814 54.3661 36.7665 51.8089C36.6297 51.5926 36.5343 51.3454 36.3717 51.1522C35.919 50.614 35.9886 50.0062 36.0751 49.3817C36.2273 48.2885 36.8954 47.6331 37.8538 47.1824C40.0196 46.1639 42.2408 45.2896 44.5098 44.5312C44.7652 44.4462 44.8258 44.3342 44.7935 44.078C44.6323 42.8109 44.4904 41.5426 44.3408 40.2743C44.324 40.1314 44.3098 39.9859 44.275 39.8468C44.226 39.6524 43.8648 39.5069 43.7565 39.6446C43.1192 40.4546 42.2498 40.5177 41.3946 40.2357C40.4079 39.9112 39.474 39.4283 38.5181 39.0085C38.4653 38.9854 38.3904 38.9145 38.3943 38.8721C38.4291 38.5295 38.175 38.5257 37.9506 38.4639C36.7523 38.1291 35.5939 37.7106 34.7103 36.7745C34.3092 36.3496 34.0112 35.8641 33.8293 35.2602C34.6845 35.1765 35.5011 35.2139 36.2866 35.4714C37.067 35.7277 37.8319 36.0328 38.5981 36.3328C39.5269 36.6972 40.4788 36.9367 41.4811 36.9741C41.7352 36.9831 41.8139 36.9007 41.899 36.6445C42.1376 35.9324 42.4291 35.2345 42.7426 34.552C43.0883 33.7975 43.5681 33.097 43.6829 32.2523C43.7074 32.0734 43.6713 31.8493 43.5797 31.6961C42.8432 30.4793 42.8754 29.1543 43.0044 27.8139C43.0109 27.7418 43.0831 27.6516 43.1502 27.613C44.0725 27.0876 45.0412 26.7735 46.1118 27.0696C46.9219 27.2937 47.3476 27.8692 47.3837 28.8169C47.4069 29.4157 47.3811 30.017 47.3604 30.617C47.3475 30.9737 47.4108 31.0832 47.7758 31.0909C48.0518 31.0973 48.3305 31.0613 48.6065 31.0265C49.3043 30.9364 49.9906 30.8694 50.6781 31.1424C50.8819 31.2235 51.1554 31.1295 51.4559 31.1128C51.2714 30.3582 51.1231 29.632 50.9116 28.9264C50.7219 28.2916 50.5555 27.6156 50.2034 27.0722C49.899 26.6022 49.8783 26.158 49.89 25.6674C49.8925 25.5631 49.948 25.4189 50.028 25.3622C51.1657 24.5729 52.3911 24.0334 53.8138 24.0887C53.9351 24.0939 54.0576 24.1055 54.1776 24.1312C54.7671 24.2536 54.7826 24.2536 54.8703 24.8381C54.9128 25.1188 55.0444 25.2669 55.2831 25.4189C55.7384 25.7099 56.146 26.0743 56.582 26.3975C56.662 26.4567 56.8206 26.5211 56.8787 26.4837C57.7377 25.9223 58.6794 26.0923 59.6029 26.176C60.0325 26.2159 60.4582 26.3151 60.88 26.4142C62.4549 26.7863 63.3695 27.7971 63.6945 29.3616C63.9899 30.7793 63.9022 32.2124 63.9022 33.679C63.6997 33.7009 63.5178 33.7202 63.283 33.7447C63.283 33.9533 63.2508 34.167 63.2959 34.3628C63.3192 34.4658 63.4649 34.5778 63.5784 34.6177C64.591 34.9718 65.561 35.4096 66.4523 36.0109C67.5062 36.7217 68.3679 37.5999 68.8761 38.7871C68.9057 38.8553 68.947 38.9416 69.0076 38.9699C69.383 39.154 69.7648 39.3253 70.1699 39.512C70.4124 38.7291 70.5749 38.0042 70.2988 37.2471C70.2073 36.9973 70.1724 36.7281 70.0744 36.4809C69.9622 36.1964 70.0976 36.1127 70.3375 36.0483C71.2572 35.8023 72.1653 35.8448 72.996 36.3007C73.6552 36.6625 74.2563 37.1286 74.8767 37.5587C74.9451 37.6063 75.0083 37.7196 75.0083 37.802C75.0083 39.2764 74.8896 40.7353 74.2743 42.104C73.8151 43.1251 73.0966 43.8835 71.9783 44.172C71.7448 44.2325 71.4701 44.2376 71.2353 44.181C70.0254 43.89 68.8232 43.5693 67.6184 43.2603C67.5346 43.2384 67.4482 43.2268 67.2998 43.1972C67.274 43.7161 67.2431 44.2093 67.2276 44.7025C67.2056 45.3579 67.1476 46.0171 67.1953 46.6687C67.234 47.1927 67.4082 47.7078 67.5255 48.2267C68.0028 50.3565 68.2505 52.5158 68.3343 54.6958C68.3459 55.0061 68.3433 55.3203 68.3885 55.6267C68.5562 56.7534 68.0944 57.7269 67.6868 58.7261C66.8883 60.6781 66.126 62.6456 65.3366 64.6028C65.1986 64.9453 65.1857 65.2814 65.1998 65.6419C65.2205 66.1725 65.2269 66.7107 65.1611 67.236C65.076 67.9082 64.729 68.4606 64.2144 68.9125C64.097 69.0155 64.0041 69.1984 63.9848 69.3555C63.572 72.6377 63.2263 75.9301 62.749 79.202C62.3969 81.6099 61.788 83.9701 60.6981 86.172C60.4324 86.7076 60.1099 87.2175 59.7861 87.721C59.7139 87.8317 59.5294 87.9038 59.385 87.9283C59.1786 87.9631 58.9619 87.9515 58.7516 87.9309C58.642 87.9193 58.4936 87.8755 58.4395 87.7944C58.2885 87.569 58.1325 87.6296 57.9261 87.6965C57.0838 87.9747 56.2466 88.2876 55.3824 88.4717C54.9773 88.558 54.513 88.3944 54.0796 88.3223C53.4991 88.227 52.9187 88.1202 52.3434 88.0004C52.2092 87.9734 51.9861 87.8819 51.9822 87.8124C51.9693 87.5562 51.848 87.2536 52.1705 87.0643C52.4775 86.8853 52.769 86.678 53.0696 86.4887C54.1337 85.8192 54.4188 84.8818 54.1595 83.6727C53.9777 82.8203 53.9364 81.9369 53.8448 81.0665C53.8319 80.9416 53.8642 80.8 53.9158 80.6828C54.8445 78.5569 55.7835 76.4362 56.711 74.3103C57.0038 73.6407 57.2669 72.9583 57.5443 72.2823C57.5262 72.2655 57.5081 72.2488 57.4901 72.2321L57.4875 72.2346ZM72.008 41.2735C71.2998 40.8743 70.6407 40.5486 70.0318 40.1455C69.5172 39.8043 68.9728 39.4412 68.6078 38.9609C68.2582 38.4999 67.9048 38.3531 67.3862 38.4265C67.1915 38.4536 66.9257 38.4111 66.8161 38.5218C66.3827 38.9609 65.957 39.4206 65.6075 39.9279C65.3314 40.3284 65.3533 40.8061 65.681 41.2014C65.8487 41.4035 66.0486 41.6057 66.2769 41.7254C66.8264 42.0139 67.394 42.2714 67.968 42.507C69.0038 42.9332 70.0473 43.3414 71.0934 43.7406C71.225 43.7908 71.4017 43.7792 71.5423 43.7406C72.4556 43.4934 73.085 42.883 73.5623 42.1002C74.2872 40.9155 74.571 39.6009 74.691 38.236C74.7206 37.8935 74.5878 37.663 74.3504 37.4557C73.7803 36.9561 73.0876 36.7243 72.3704 36.5453C72.2543 36.517 72.1357 36.5041 72.017 36.4848C72.0131 36.5041 72.0093 36.5221 72.0067 36.5414C72.2801 36.7655 72.5549 36.9895 72.8284 37.2136C72.818 37.2239 72.809 37.2355 72.7987 37.2458C72.1086 37.0501 71.4172 36.8543 70.7271 36.6599C70.7116 36.6985 70.6961 36.7372 70.6807 36.7745C71.1308 37.0526 71.5797 37.3333 72.0312 37.6102C72.3627 37.8136 72.364 37.811 72.2247 38.1471C71.9086 38.0917 71.6029 38.0377 71.194 37.9656C71.3372 38.4574 71.4482 38.8386 71.5784 39.288C71.2805 39.1656 71.0638 39.0781 70.8483 38.9892C70.8277 39.0137 70.8084 39.0394 70.7877 39.0639C71.0263 39.3948 71.265 39.7258 71.5023 40.058C71.7448 40.3992 72.0015 40.7353 72.0067 41.2696L72.008 41.2735ZM59.4482 32.4146C59.2005 32.7944 58.9696 33.1678 58.7181 33.5245C58.6471 33.6249 58.5117 33.7357 58.4046 33.737C58.3001 33.7383 58.1453 33.6314 58.0938 33.531C57.6178 32.6193 57.2244 31.678 57.2424 30.6209C57.2463 30.3943 57.1289 30.3466 56.9277 30.3453C56.7226 30.3441 56.6452 30.4239 56.6568 30.6209C56.671 30.8874 56.6658 31.1553 56.6878 31.4205C56.769 32.4068 57.0077 33.3481 57.5584 34.1864C57.6242 34.2868 57.7726 34.3937 57.8835 34.3937C58.593 34.3975 59.2805 34.2585 59.9087 33.9185C60.3872 33.6597 60.8554 33.379 61.3146 33.0854C61.512 32.9592 61.6255 32.967 61.7493 33.2657C60.7935 33.9005 59.8532 34.5765 58.8574 35.1598C58.4227 35.4135 58.2898 35.6916 58.3633 36.1384C58.3775 36.226 58.384 36.3161 58.4085 36.4011C58.4227 36.45 58.4588 36.526 58.4949 36.5311C58.8909 36.5942 59.2585 36.8221 59.6894 36.7011C60.8477 36.3779 61.6758 35.5925 62.4588 34.7439C62.5039 34.695 62.5091 34.552 62.4717 34.4902C61.9338 33.6095 61.6939 32.6309 61.5185 31.6317C61.3972 30.9428 61.3069 30.2501 61.1857 29.5612C61.1573 29.3977 61.2179 29.1762 60.9419 29.1157C60.5304 29.0268 60.3356 29.1916 60.3395 29.6629C60.3433 30.0634 60.2711 30.1561 59.8635 30.1934C59.6778 30.2101 59.4843 30.196 59.2998 30.1664C58.927 30.1058 58.5568 30.0273 58.1866 29.9526C57.9725 29.9101 57.8448 29.9642 57.8306 30.2089C57.8164 30.4638 57.7764 30.7162 57.7558 30.9711C57.7081 31.53 57.7119 31.5274 58.2666 31.7051C58.4085 31.7514 58.6587 31.8261 58.6587 31.8892C58.66 32.1699 58.8767 32.1648 59.0341 32.2382C59.1915 32.3116 59.3527 32.3734 59.452 32.4146H59.4482ZM56.4865 57.5633C56.6491 57.5389 56.6878 57.544 56.7123 57.5286C57.6849 56.9414 58.6149 56.295 59.4288 55.4967C59.5139 55.413 59.572 55.2649 59.5771 55.1439C59.6133 54.2696 59.6881 53.3927 59.6442 52.5223C59.5759 51.1522 59.1192 49.8993 58.286 48.7958C58.2227 48.7134 58.1479 48.64 58.0551 48.5357C57.9596 48.6993 57.8809 48.819 57.8164 48.9452C57.2037 50.1479 57.067 51.4484 57.0915 52.763C57.1134 53.8923 57.0128 54.9919 56.7148 56.0838C56.5884 56.5435 56.5652 57.0315 56.4865 57.562V57.5633ZM36.0867 35.7392C36.4685 36.311 36.4969 36.8865 36.4956 37.4672C36.4956 37.6617 36.5678 37.7557 36.7665 37.8136C37.2566 37.9565 37.7455 38.1098 38.2176 38.2991C39.5062 38.8154 40.7845 39.3549 42.0693 39.8816C42.1776 39.9253 42.313 39.9756 42.415 39.9485C42.909 39.8107 43.1154 39.5249 43.136 39.0124C43.1618 38.3969 43.1915 37.7814 43.2199 37.1389C43.0896 37.1582 43.0019 37.1647 42.9167 37.184C40.7716 37.672 38.8122 37.2999 37.0773 35.9144C36.7935 35.6877 36.4865 35.7238 36.0854 35.7418L36.0867 35.7392ZM53.383 26.0382C52.6955 26.2764 52.1254 26.5455 51.6997 27.0374C51.5539 27.2061 51.4727 27.4379 51.3862 27.6503C51.3604 27.7134 51.3862 27.8422 51.4366 27.886C51.8029 28.1989 51.9357 28.6264 51.968 29.0706C51.9938 29.4401 52.1009 29.5908 52.4981 29.5844C52.8709 29.5779 53.165 29.8599 53.1444 30.111C53.1212 30.384 53.0773 30.6544 53.0399 30.9415C52.8683 30.9415 52.711 30.9222 52.5613 30.9467C52.4014 30.9724 52.2195 31.0046 52.1034 31.1012C52.0273 31.1643 52.0196 31.3523 52.0402 31.4746C52.0518 31.5416 52.1911 31.6433 52.2621 31.6356C52.9573 31.5544 53.6539 31.454 54.2731 31.0935C54.9438 30.7046 55.3811 29.6217 55.1605 28.8749C55.0135 28.9508 54.8729 29.0255 54.7684 29.0796C54.3053 28.0637 53.8474 27.0593 53.383 26.0395V26.0382ZM50.9077 43.1779C51.1799 42.3358 51.1876 41.531 51.1334 40.725C51.1296 40.6619 50.9644 40.564 50.8703 40.5589C49.7713 40.5009 48.671 40.4713 47.572 40.403C47.2869 40.385 47.1321 40.4661 47.0393 40.7198C46.9477 40.9709 46.7826 41.0803 46.4949 41.1061C46.0151 41.1486 45.5404 41.2671 45.0412 41.3572C45.0747 41.6739 45.098 41.9482 45.1328 42.2212C45.2192 42.8985 45.2192 42.865 45.9041 42.8161C47.0457 42.735 48.1899 42.677 49.3327 42.6616C49.8732 42.6538 50.4214 42.744 50.9077 43.1766V43.1779ZM64.2131 50.8831C64.2776 50.8689 64.3408 50.8496 64.4053 50.8419C65.2889 50.735 66.1724 50.6333 67.0547 50.52C67.1463 50.5084 67.305 50.4221 67.3024 50.3796C67.2624 49.8118 67.1992 49.2452 67.136 48.6259C65.3585 49.4294 63.5114 49.7191 61.7016 50.1942C61.819 50.1942 61.9351 50.1942 62.0525 50.1942C62.5762 50.1942 63.0999 50.1994 63.6236 50.1916C63.8158 50.1891 63.9461 50.2328 63.9512 50.4517C63.4275 50.5586 62.9154 50.6642 62.3982 50.7698C62.4227 50.8741 62.4291 50.9179 62.4433 50.9604C62.5813 51.4097 62.473 51.6003 62.028 51.7007C61.7352 51.7664 61.4411 51.8282 61.1534 51.9132C60.9212 51.9814 60.6994 52.0819 60.4736 52.1682C60.4827 52.1978 60.4917 52.2261 60.4994 52.2557C62.8703 51.6892 65.2772 51.5668 67.6945 51.6995C67.7306 51.2823 67.5488 51.1857 67.2005 51.1947C66.3208 51.2153 65.4398 51.1999 64.5601 51.2024C64.3498 51.2024 64.1731 51.1767 64.2156 50.8844L64.2131 50.8831ZM50.2318 57.5839C50.5826 56.662 51.3514 52.3935 51.0676 51.8141C50.8871 52.0252 50.7155 52.2248 50.5465 52.427C50.1363 52.9137 49.721 53.3953 49.1328 53.6798C48.6981 53.8897 48.6413 53.9361 48.8206 54.3674C49.2579 55.4207 49.7352 56.4585 50.2318 57.5852V57.5839ZM51.6365 43.5088C51.9228 43.5436 52.2195 43.5719 52.5136 43.6144C53.2166 43.7187 53.2166 43.7213 53.2643 44.4256C53.3069 45.0501 53.3108 45.0231 53.9299 45.1248C54.562 45.2278 55.1824 45.3913 55.8093 45.5278C56.0544 45.5806 56.2995 45.6308 56.5446 45.6823C56.5639 45.6463 56.582 45.6102 56.6013 45.5755C56.3498 44.987 56.0867 44.4024 55.8532 43.8063C55.759 43.5668 55.621 43.4599 55.3708 43.4341C54.5414 43.3479 53.7145 43.2397 52.8851 43.1573C52.671 43.1354 52.5485 43.0788 52.5575 42.8444C52.5601 42.7736 52.5291 42.7015 52.5136 42.6307C51.8171 42.7903 51.5681 43.0337 51.6365 43.5101V43.5088ZM51.2805 34.4027C51.5165 34.2482 51.7771 34.1709 51.808 34.0396C51.9099 33.6108 51.9319 33.1614 51.9744 32.7197C51.9809 32.6502 51.9512 32.5614 51.9087 32.506C51.296 31.7205 50.5375 31.1978 49.4914 31.2776C49.0451 31.3124 48.6529 31.4978 48.3343 31.9485C49.7726 32.233 50.9928 32.7223 51.2805 34.4027ZM44.7084 32.2214C45.6565 32.188 46.4407 31.2905 46.3285 30.3312C46.2937 30.0363 46.2176 29.7427 46.1208 29.4607C46.0847 29.3552 45.9377 29.2238 45.8384 29.2225C45.7506 29.22 45.6088 29.368 45.5817 29.4736C45.5236 29.7002 45.4256 29.8264 45.1805 29.8213C44.9135 29.8161 44.6452 29.82 44.3524 29.82C44.3214 30.0337 44.2789 30.272 44.2531 30.5127C44.1976 31.0175 44.2015 31.0175 44.6865 31.1231C44.7819 31.1437 44.8748 31.1733 45.0618 31.2248C44.9406 31.5673 44.8271 31.8879 44.7097 32.2214H44.7084ZM58.1982 43.5217C58.7026 43.4805 59.1657 43.4419 59.6558 43.4007C59.4894 42.8277 59.3346 42.2727 59.1618 41.7242C59.1347 41.6366 59.0315 41.5362 58.9438 41.5117C58.7129 41.446 58.4704 41.4177 58.1982 41.3688V43.5204V43.5217ZM64.5343 41.6005C64.1292 41.6598 63.7784 41.7036 63.4327 41.7692C63.3811 41.7795 63.3076 41.9019 63.3166 41.9598C63.4185 42.5676 63.5346 43.1715 63.6532 43.8088C63.919 43.7535 64.1473 43.7187 64.3666 43.6517C64.4362 43.6311 64.5252 43.5243 64.5265 43.4547C64.5394 42.8586 64.5343 42.2611 64.5343 41.6005ZM63.0767 43.7998C62.8922 43.1225 62.7271 42.471 62.5272 41.8297C62.4975 41.7345 62.3092 41.6714 62.1815 41.6353C62.1505 41.6263 62.0538 41.7757 62.0202 41.8632C61.9738 41.9856 61.9519 42.1195 61.9299 42.2495C61.8332 42.8328 61.739 43.4174 61.6384 44.0368C62.1453 43.9531 62.5878 43.8797 63.078 43.7985L63.0767 43.7998ZM50.5388 35.5809C50.5362 35.6362 50.5297 35.6903 50.5323 35.7444C50.5788 36.7307 50.6278 37.717 50.6703 38.7034C50.6781 38.8798 50.7413 38.9661 50.9296 38.9648C51.1412 38.9635 51.1528 38.8334 51.1541 38.6763C51.1605 37.8999 51.1579 37.1222 51.1837 36.3457C51.2031 35.7907 51.1437 35.6968 50.5375 35.5822L50.5388 35.5809ZM57.2605 63.7144C58.0576 63.5611 58.8458 63.4105 59.6313 63.2598V62.2465C59.4275 62.3263 59.2637 62.3868 59.1038 62.4563C58.5762 62.6855 58.0615 62.9508 57.5185 63.1375C57.2282 63.2366 57.1354 63.35 57.2605 63.7144ZM61.0644 43.7908C61.1237 43.0788 61.1818 42.3693 61.2463 41.5915C60.8232 41.6302 60.4491 41.6649 60.1318 41.6933C60.2801 42.3165 60.444 42.8946 60.5459 43.4856C60.6 43.7973 60.7148 43.8912 61.0631 43.7908H61.0644ZM55.9422 31.06C55.8158 31.0741 55.6881 31.0832 55.5617 31.1038C54.7465 31.2351 54.1028 31.7347 53.3972 32.1043C53.1457 32.2356 53.0915 32.3927 53.1857 32.6798C54.1595 32.2317 55.2663 32.0489 55.9422 31.06ZM45.067 33.0816C46.2163 33.0906 47.4172 32.4841 47.1734 31.6549C46.5414 31.9575 45.9183 32.2665 45.2863 32.5536C45.0257 32.6721 44.9844 32.8421 45.0683 33.0816H45.067ZM41.7468 49.8659C41.8822 50.1981 41.9828 50.4904 42.1221 50.7621C42.1634 50.8432 42.3105 50.9114 42.4085 50.9088C42.5014 50.9063 42.6213 50.8264 42.6807 50.7453C42.8793 50.4672 43.0535 50.1736 43.2418 49.8878C43.3476 49.7268 43.4624 49.5697 43.5733 49.4113C43.5565 49.3869 43.541 49.3624 43.5243 49.3379C42.9503 49.5079 42.3775 49.6779 41.7481 49.8646L41.7468 49.8659ZM59.6571 51.5063C60.4711 51.366 61.2618 51.2308 62.0641 51.093C62.0654 50.9307 62.184 50.6977 61.9028 50.7183C61.2656 50.7633 60.6297 50.8419 59.9964 50.932C59.6945 50.9745 59.6494 51.2179 59.6571 51.5063ZM57.2218 41.1988V43.1831H57.5662C57.592 42.6474 57.5984 42.1259 57.6487 41.6096C57.681 41.2774 57.5146 41.2143 57.2218 41.1988ZM65.5017 43.4084C65.4411 42.8727 65.3817 42.3487 65.3211 41.8194H64.8632C64.9277 42.2881 64.9948 42.7247 65.0463 43.1637C65.0773 43.4264 65.205 43.5088 65.5004 43.4084H65.5017ZM54.5194 35.8075C54.3956 36.2582 54.2834 36.6638 54.1634 37.1041H54.9864C54.8896 36.6444 54.9632 36.1706 54.5207 35.8075H54.5194ZM52.4865 44.8389C52.3885 44.6162 52.3214 44.4269 52.2234 44.2569C52.1718 44.1681 52.0376 44.038 51.9822 44.0561C51.8519 44.0986 51.692 44.1951 51.6429 44.311C51.5578 44.5157 51.5475 44.7514 51.4959 45.0244C51.8532 44.9574 52.1524 44.9008 52.4865 44.8377V44.8389ZM55.5694 37.09C56.017 37.1621 56.0196 37.1595 56.0415 36.7668C56.0467 36.6792 56.0467 36.5891 56.0609 36.5028C56.1344 36.0315 56.0776 35.9659 55.5694 35.9607V37.09ZM47.8584 36.1217C48.4543 36.0302 48.4775 35.9749 48.2311 35.2963H47.8584V36.1217ZM52.9754 37.3642C52.9754 37.1196 52.9948 36.9084 52.9651 36.7063C52.9535 36.6264 52.8335 36.5092 52.7613 36.508C52.6826 36.5067 52.5407 36.611 52.5304 36.6831C52.4994 36.9033 52.5188 37.1312 52.5188 37.3655H52.9741L52.9754 37.3642ZM60.3008 44.7424C60.3111 44.7179 60.3201 44.6922 60.3305 44.6677C60.4749 44.6677 60.6207 44.678 60.7626 44.6613C60.8051 44.6561 60.8696 44.5776 60.8696 44.5338C60.8696 44.49 60.8051 44.4127 60.76 44.4076C60.6181 44.3883 60.4698 44.378 60.3279 44.3973C60.1602 44.4205 59.9964 44.4771 59.8313 44.5196C59.9873 44.5943 60.1434 44.669 60.3008 44.7424ZM43.4146 37.748V38.5656C43.6494 38.4768 43.8803 38.4729 43.8738 38.1484C43.8674 37.8239 43.6339 37.8329 43.4146 37.7492V37.748ZM45.0567 41.016C45.4037 40.8486 45.6978 40.7082 45.9906 40.5666C45.9803 40.5395 45.9699 40.5112 45.9609 40.4842C45.6668 40.5099 45.374 40.5357 45.0567 40.564V41.016ZM52.1021 36.7784C52.057 36.7668 52.0118 36.7539 51.9667 36.7423C51.8854 36.9973 51.8042 37.2509 51.7113 37.5432H52.1034V36.7784H52.1021ZM51.492 30.1973C51.5191 30.2153 51.5462 30.2333 51.5733 30.2514C51.6636 30.1728 51.8416 30.0737 51.8287 30.0183C51.7706 29.7569 51.661 29.5071 51.5694 29.2521C51.5436 29.2624 51.5178 29.2727 51.492 29.2831V30.1973ZM62.8032 31.4038C62.771 31.3703 62.7387 31.3381 62.7065 31.3046C62.5027 31.521 62.2988 31.736 62.0512 31.9974C62.6458 32.094 62.6549 31.6768 62.8032 31.4038ZM47.3798 36.1526C47.216 36.0187 47.1283 35.8963 47.0638 35.9079C46.9864 35.9221 46.8871 36.0418 46.8754 36.1268C46.8664 36.1938 46.967 36.3303 47.0341 36.3406C47.1102 36.3509 47.2018 36.2569 47.3798 36.1526ZM62.3685 38.8785C62.4485 39.0021 62.5078 39.0961 62.5684 39.1901C62.62 39.0897 62.7103 38.9879 62.7103 38.8875C62.7103 38.7832 62.6226 38.6776 62.5736 38.5733C62.5117 38.666 62.4498 38.7587 62.3672 38.8798L62.3685 38.8785ZM66.1221 45.2961C66.0086 45.278 65.9016 45.2613 65.7119 45.2304C65.8461 45.5137 65.9428 45.7171 66.0383 45.9193C66.0667 45.909 66.0938 45.8987 66.1221 45.8897V45.2961ZM64.6607 44.2389C64.8038 44.5402 65.0386 44.4102 65.2127 44.4295C65.3056 44.4398 65.4049 44.3767 65.503 44.3458L65.472 44.2389H64.662H64.6607ZM56.5755 41.974C56.5523 41.9752 56.5291 41.9765 56.5059 41.9791C56.4582 42.1735 56.4091 42.3667 56.3563 42.5791H56.7819C56.7058 42.3564 56.64 42.1658 56.5755 41.974ZM50.3363 61.7288C50.4201 61.6503 50.4807 61.5923 50.5414 61.5357C50.4691 61.4868 50.393 61.394 50.3259 61.4005C50.2447 61.4082 50.1712 61.4996 50.0938 61.5563C50.1634 61.6065 50.2344 61.6567 50.3363 61.7301V61.7288ZM46.3337 35.5191C46.2666 35.4263 46.2163 35.3568 46.1673 35.2873C46.1131 35.362 46.0177 35.4379 46.0177 35.5126C46.0177 35.5899 46.1105 35.6671 46.1621 35.7444C46.2137 35.6761 46.2653 35.6092 46.3337 35.5178V35.5191ZM66.2769 46.3287C66.1995 46.5463 66.1531 46.6803 66.1002 46.8258H66.5091C66.4369 46.6712 66.3814 46.5528 66.2769 46.3287Z" fill="url(#paint0_linear_383_207)"/>
<path d="M79.5178 83.6443C80.0131 83.8426 80.4388 83.9791 80.8335 84.1774C81.7068 84.6165 82.5762 85.0659 83.4146 85.5642C83.5784 85.6608 83.6016 85.9981 83.6752 86.2286C83.6803 86.2454 83.5823 86.3188 83.5255 86.3303C82.0912 86.6175 81.045 87.5317 80.0157 88.4781C79.2456 89.1863 78.4807 89.8997 77.6926 90.5873C77.5017 90.7547 77.2372 90.8628 76.9883 90.9349C75.9086 91.2427 74.8213 91.5195 73.7416 91.8273C73.5881 91.871 73.4372 92.0037 73.334 92.1337C72.858 92.7273 72.3227 93.2346 71.5565 93.4162C70.6213 93.6377 69.7751 93.3479 68.9638 92.9179C68.8877 92.8767 68.8335 92.7453 68.818 92.6475C68.769 92.332 68.7419 92.0127 68.7019 91.6483C68.3485 91.6714 68.0093 91.7114 67.6687 91.7127C67.0251 91.7127 66.3762 91.7384 65.7403 91.6676C65.1134 91.5968 64.6233 91.2414 64.3279 90.6658C64.2427 90.4997 64.1524 90.425 63.9435 90.4379C61.9648 90.5589 60.0015 90.7971 58.0615 91.2131C57.7984 91.2697 57.6346 91.374 57.6075 91.6753C58.3427 91.9522 59.0883 92.2071 59.8132 92.511C61.3508 93.1548 62.8741 93.8295 64.4104 94.4772C64.8245 94.6523 65.1289 94.8725 65.0438 95.3657C64.3898 95.4262 63.7061 95.4828 63.0251 95.5537C62.5826 95.6 62.1415 95.6592 61.7016 95.7262C61.3043 95.7867 60.9586 95.7314 60.5923 95.5202C59.3488 94.8068 58.0989 94.1012 56.8167 93.4613C55.8467 92.9784 54.7942 92.7157 53.699 92.6861C53.5391 92.6822 53.3637 92.717 53.2205 92.7853C50.5968 94.0407 48.0634 95.4481 45.6926 97.1465C45.2463 97.4658 44.6555 97.5907 44.0918 97.2958C43.8351 97.1619 43.5604 97.0499 43.3385 96.8709C43.0921 96.6726 42.8458 96.4408 42.6923 96.1704C42.3672 95.5987 42.4575 95.3721 43.0522 95.1056C44.7471 94.3472 46.4511 93.6106 48.1383 92.838C48.6207 92.6166 49.0644 92.3088 49.5223 92.0346C49.6229 91.974 49.7107 91.8916 49.8603 91.7757C49.1444 91.5774 48.502 91.3714 47.8455 91.2221C46.2653 90.8615 44.6839 90.5036 43.0921 90.1958C42.4962 90.0812 41.8732 90.0993 41.2631 90.0825C41.1379 90.0787 40.9999 90.1714 40.8864 90.2473C40.2608 90.6697 39.67 91.15 39.0135 91.5144C38.2834 91.92 37.4862 91.9599 36.6981 91.6084C36.0544 91.3199 35.6081 90.9002 35.6468 90.1224C35.6571 89.9164 35.5965 89.7065 35.5643 89.4606C35.4108 89.4606 35.2689 89.4644 35.1283 89.4606C34.6059 89.4438 34.0796 89.4606 33.5623 89.3949C32.8645 89.3086 32.4543 88.8477 32.1847 88.2219C32.1151 88.0584 31.9628 87.8897 31.8055 87.8111C30.3389 87.0849 28.8477 86.3999 27.2211 86.1256C26.3066 85.9711 25.3714 85.9338 24.4104 85.8398C24.3627 85.4432 24.5472 85.071 24.9096 84.8174C25.2437 84.5843 25.6255 84.4195 25.9854 84.2225C26.3156 84.0409 26.6459 83.8581 26.9748 83.674C27.0999 83.6031 27.2199 83.5233 27.3953 83.4151C27.0728 83.1962 26.8703 83.0829 26.6949 82.9361C25.3379 81.8017 23.9809 80.6686 22.6368 79.5188C21.4488 78.5028 20.2311 77.5397 18.7865 76.8997C18.6949 76.8585 18.6213 76.6847 18.6175 76.5701C18.6149 76.5044 18.7607 76.3911 18.8548 76.3705C19.7565 76.1774 20.662 75.9997 21.5649 75.8168C21.6397 75.8014 21.712 75.7782 21.859 75.7383C21.7042 75.5966 21.5907 75.4885 21.4733 75.3842C20.1796 74.2343 18.9658 73.0136 18.037 71.538C17.0322 69.9414 16.5291 68.1915 16.3859 66.3205C16.2711 64.805 16.3563 63.2997 16.5149 61.7945C16.5665 61.3001 16.4569 61.1352 15.9977 61.0129C14.8484 60.7077 14.3672 59.8785 14.6201 58.5535C14.8084 57.5633 15.0431 56.5809 15.2689 55.5984C15.2973 55.4748 15.3747 55.3447 15.4649 55.2572C15.7036 55.0267 15.7449 54.7576 15.7294 54.4408C15.6068 51.7471 16.1692 49.1435 16.7549 46.5386C17.1173 44.9265 17.4037 43.2989 17.7403 41.6804C17.7868 41.4589 17.8951 41.2361 18.0254 41.0507C18.682 40.112 19.3553 39.1862 20.0235 38.2553C20.0815 38.1742 20.137 38.0905 20.1976 38.0106C20.6323 37.4363 20.8684 36.8221 20.8245 36.0702C20.7884 35.456 20.8851 34.8289 20.9716 34.2134C21.1547 32.909 21.8242 31.866 22.811 31.0201C23.4275 30.4909 24.0493 29.9642 24.7123 29.4968C24.9354 29.3397 25.2914 29.3732 25.6823 29.3024C25.8719 31.1991 26.0525 33.0159 26.2357 34.8611H29.316C29.2153 35.1469 29.1689 35.4392 29.0206 35.662C28.6581 36.2067 28.2428 36.7166 27.8622 37.2496C27.7423 37.417 27.6352 37.605 27.572 37.8007C27.2302 38.8437 26.8845 39.8867 26.5814 40.9426C26.4795 41.298 26.4743 41.6881 26.4653 42.0641C26.4549 42.4903 26.5156 42.5354 26.9335 42.5663C27.0341 42.574 27.1347 42.5727 27.234 42.5843C28.1241 42.6822 28.502 43.1869 28.2995 44.0548C28.1834 44.5505 28.0119 45.0321 27.8584 45.5446C27.91 45.5729 27.9706 45.618 28.0389 45.6424C28.5704 45.833 28.7213 46.0712 28.6542 46.6223C28.4904 47.9653 27.8945 48.5164 26.5323 48.5666C26.0989 48.5834 25.6642 48.5538 25.2321 48.5808C25.076 48.5911 24.8877 48.6658 24.7819 48.7752C24.4298 49.1409 23.9796 49.2916 23.5114 49.3946C23.2095 49.4615 23.0638 49.5826 23.1167 49.9071C23.1425 50.0667 23.1205 50.2341 23.1205 50.4131C23.5501 50.4402 23.7964 50.2071 24.0441 49.965C24.333 49.683 24.6323 49.4113 24.9264 49.1345C24.9651 49.1538 25.0038 49.1731 25.0425 49.1911C25.0606 49.3714 25.0967 49.5517 25.0915 49.7307C25.0735 50.3423 25.0283 50.9526 25.0193 51.563C25.0154 51.8128 25.0373 52.0767 25.1134 52.3111C25.5752 53.7249 26.0951 55.1207 26.5117 56.5474C26.6716 57.0946 26.6536 57.7076 26.6407 58.2896C26.6007 60.0794 26.4459 61.8602 26.0822 63.6165C26.0809 63.6242 26.0925 63.6345 26.1183 63.677C26.3737 63.5483 26.6342 63.4169 26.9438 63.2598C26.9619 63.5122 26.9761 63.7169 26.9928 63.9204C27.038 64.4509 27.0535 64.9865 27.1386 65.5106C27.2495 66.1931 27.4985 66.815 27.9332 67.3854C28.9793 68.7554 29.9893 70.1551 30.7194 71.7299C31.1992 72.7638 31.5165 73.8455 31.6868 74.9734C31.7074 75.1073 31.8377 75.2619 31.9603 75.3365C32.7768 75.8349 33.6101 76.3061 34.4279 76.8032C36.4079 78.0058 38.0164 79.6063 39.3966 81.4489C39.474 81.5519 39.5604 81.6485 39.6958 81.812C39.781 81.3472 39.848 80.9596 39.9254 80.5759C40.0673 79.8651 40.3189 79.7158 41.0257 79.6025C41.7274 79.4904 42.1337 79.7724 42.522 80.3042C43.2702 81.3253 43.3514 82.3773 42.8238 83.5014C42.7594 83.6392 42.6897 83.7757 42.6097 83.9379C42.7465 84.0126 42.8613 84.0744 42.9761 84.1375C43.3953 84.368 43.8287 84.5753 44.2298 84.8328C45.3766 85.5706 45.7713 86.4256 45.4088 87.7313C45.2321 88.3674 45.4862 88.6648 45.9145 88.9648C46.6304 89.4645 47.4495 89.713 48.2892 89.8971C49.8616 90.2409 51.4649 90.2808 53.0605 90.4121C54.2911 90.5139 55.4443 90.2319 56.6129 89.9705C58.3169 89.5906 60.0209 89.2018 61.6216 88.4833C62.1647 88.2399 62.6587 87.8871 63.1734 87.5806C63.3308 87.4866 63.3514 87.3708 63.2818 87.1879C63.1721 86.8995 63.0831 86.5969 63.0418 86.2917C62.9296 85.4676 63.2327 84.8818 64.0209 84.6075C64.6 84.4053 65.2269 84.3191 65.8409 84.2431C66.2795 84.1877 66.7335 84.2058 67.176 84.2444C67.4559 84.2688 67.5281 84.1543 67.6094 83.9263C68.0699 82.631 68.5007 81.3202 69.0322 80.0531C69.8074 78.2067 70.8264 76.5006 72.2698 75.0803C73.6113 73.7605 75.1953 72.8862 77.0554 72.5256C77.2205 72.4934 77.4024 72.375 77.5107 72.2424C78.7361 70.7358 79.7784 69.1044 80.7006 67.4021C80.9148 67.0068 80.8993 66.4828 80.9715 66.0154C81.076 65.3458 81.1624 64.6749 81.2592 64.0041C81.2695 63.932 81.3017 63.8637 81.3585 63.6783C82.3504 65.1475 83.2882 66.5394 84.2272 67.9314C84.2608 67.9172 84.2943 67.9043 84.3279 67.8902C84.2311 67.1279 84.4427 66.3643 83.9499 65.6072C82.847 63.9127 81.8461 62.1512 81.1521 60.2377C80.6787 58.9321 80.3949 57.5942 80.4388 56.1959C80.4788 54.8954 80.8038 53.6695 81.4217 52.5313C81.5275 52.3368 81.8203 52.2441 82.0641 52.078C82.4227 53.0927 83.0096 53.8176 83.7564 54.4177C83.9344 54.5606 84.1524 54.6636 84.3666 54.7511C84.5523 54.8258 84.6671 54.7486 84.6452 54.5258C84.6026 54.0842 84.5729 53.6399 84.5175 53.1996C84.5071 53.1146 84.4207 53.0103 84.3407 52.9703C84.1331 52.8661 83.9035 52.8068 83.6945 52.7051C82.2343 51.9917 81.7184 50.6797 82.3259 49.1757C82.433 48.9092 82.3994 48.783 82.1698 48.613C81.6629 48.237 81.2566 47.7619 80.9999 47.1799C80.8013 46.7279 80.6787 46.2489 81.0347 45.8266C81.414 45.3772 81.9635 45.345 82.5065 45.3592C82.5826 45.3617 82.6639 45.4351 82.7284 45.4905C82.9373 45.6695 83.1399 45.8575 83.4159 46.1034C83.3695 45.9566 83.3553 45.8909 83.3282 45.8304C83.2998 45.7699 83.2637 45.7133 83.2237 45.6605C82.3053 44.4913 81.837 43.147 81.6448 41.6881C81.5584 41.0288 81.4294 40.3734 81.2927 39.7232C81.2463 39.5017 81.1199 39.2944 81.0141 39.0884C80.8464 38.7626 80.6478 38.4523 80.4917 38.1214C80.3279 37.7711 80.3859 37.6746 80.7509 37.5934C80.9019 37.56 81.0528 37.5291 81.2372 37.4904C81.1831 37.0938 81.1263 36.714 81.0799 36.3328C80.9251 35.0555 80.9019 33.7833 81.2953 32.5369C81.4217 32.1352 81.5597 32.0218 81.9738 32.1236C82.3672 32.2201 82.7542 32.3721 83.1205 32.5472C83.5204 32.7391 83.8893 32.9953 84.2801 33.2052C84.462 33.303 84.6671 33.3597 84.858 33.4331C85.2385 32.8343 85.5971 32.2601 85.9712 31.6961C86.0447 31.5853 86.1724 31.4991 86.2937 31.4347C86.5181 31.3162 86.6755 31.3793 86.7929 31.624C87.3424 32.7622 88.2621 33.6237 89.0373 34.5945C90.0705 35.8886 90.8432 37.3153 91.1386 38.9648C91.3746 40.2794 91.2779 41.5748 90.8677 42.847C90.8174 43.0015 90.7761 43.1586 90.7116 43.3813C91.7603 43.3118 92.6348 42.7826 93.6668 42.6255C93.4552 43.0994 93.2527 43.514 93.085 43.9428C92.8593 44.5196 92.5562 45.0939 92.4749 45.6939C92.3601 46.5335 92.4065 47.3975 92.4078 48.2499C92.4104 50.5625 92.4246 52.8738 92.4336 55.1864C92.4336 55.3396 92.4336 55.4928 92.4336 55.6988C92.5781 55.6409 92.6877 55.6023 92.7935 55.5546C93.819 55.1027 94.8857 54.8142 96.0054 54.7215C96.2827 54.6984 96.373 54.7666 96.3511 55.064C96.1318 58.0436 95.3075 60.8429 93.8474 63.4504C93.3946 64.2603 92.8296 64.9878 92.0815 65.5621C91.9873 65.6342 91.928 65.799 91.919 65.9252C91.7513 68.0434 91.3114 70.0817 90.1092 71.8818C89.7158 72.4703 89.2514 73.0111 88.7922 73.6111C89.3366 73.6562 89.877 73.7 90.4833 73.7502C90.0279 74.1223 89.6216 74.4455 89.2256 74.7803C87.3462 76.3679 85.699 78.1809 84.1937 80.1137C83.2882 81.2751 82.1634 82.1249 80.9212 82.8563C80.4826 83.1138 80.0338 83.3533 79.5165 83.6418L79.5178 83.6443ZM84.2105 40.6142C83.5694 39.9575 82.9283 39.3021 81.9196 39.1656C81.9144 39.2674 81.9054 39.3214 81.9106 39.3729C81.9931 40.112 82.0757 40.8524 82.1608 41.5915C82.3169 42.9397 82.7761 44.1539 83.7306 45.1544C83.8893 45.3205 84.0467 45.4029 84.2814 45.3862C84.6916 45.3566 85.1057 45.3398 85.5159 45.3566C85.6732 45.363 85.8577 45.4441 85.9738 45.5523C86.2576 45.8175 86.5284 46.1021 86.7671 46.4086C86.998 46.706 87.2727 46.7189 87.6352 46.6391C87.5849 46.4459 87.55 46.2631 87.4907 46.0892C87.0096 44.6793 86.2743 43.4007 85.4462 42.1697C85.3662 42.0512 85.3043 41.9212 85.2334 41.7976C85.3146 41.889 85.4023 41.9753 85.4759 42.0705C86.3233 43.1624 87.0689 44.3175 87.6558 45.5703C87.8132 45.9064 87.8944 45.9412 88.1989 45.7171C88.4749 45.5137 88.7045 45.2484 88.9754 45.0372C89.3224 44.7668 89.3624 44.4192 89.3108 44.0239C89.2101 43.2397 88.8735 42.5585 88.3833 41.9546C87.2095 40.5086 85.7055 39.5326 83.946 38.9519C83.5165 38.8103 83.0599 38.7459 82.6161 38.6467C82.602 38.6828 82.5865 38.7188 82.5723 38.7562C82.6407 38.836 82.709 38.9171 82.78 38.9957C83.2572 39.5352 83.7345 40.0747 84.2118 40.6142H84.2105ZM28.7445 73.6446C28.6336 74.1339 28.6568 74.5575 28.8013 74.994C30.2021 79.2252 32.6142 82.7288 36.2776 85.3157C37.948 86.4952 39.6739 87.5961 41.3585 88.7588C41.7094 89.0009 41.9686 88.9455 42.2937 88.715C40.8967 87.2729 40.235 85.4509 39.5101 83.6598C39.185 82.8576 38.8277 82.0683 38.4562 81.2867C38.3259 81.0124 38.1505 80.7317 37.9248 80.5334C37.1741 79.8729 36.422 79.2059 35.6133 78.6213C33.9274 77.4032 32.1976 76.2469 30.5014 75.0442C29.9054 74.6219 29.3559 74.1352 28.7432 73.6446H28.7445ZM90.5155 62.6173C90.2137 63.2972 89.9389 63.9165 89.7029 64.4483C89.7622 63.9358 89.8345 63.3229 89.9067 62.71L89.7906 62.6752C89.2824 63.122 88.7651 63.5598 88.2672 64.0182C87.0805 65.1102 86.0305 66.3115 85.3379 67.7871C84.9947 68.5172 84.7161 69.2615 84.8503 70.0946C84.8838 70.3019 84.8825 70.5156 84.9019 70.7255C84.9702 71.4839 85.0399 72.2424 85.1173 73.0909C85.9841 72.026 86.6884 70.9431 87.6197 70.0418C87.452 70.4139 87.2327 70.75 86.9928 71.0706C86.513 71.7106 86.0047 72.3299 85.5417 72.9802C85.3043 73.3124 85.1818 73.7064 85.1908 74.1635C85.3675 74.1506 85.5197 74.148 85.6706 74.1262C87.5694 73.8519 88.938 72.8244 89.7803 71.1311C90.2782 70.1293 90.6768 69.0786 91.114 68.046C91.1553 67.9468 91.1734 67.8283 91.1695 67.7202C91.1192 66.4223 91.0805 65.123 90.9954 63.8264C90.9696 63.4349 90.9193 63.01 90.5168 62.616L90.5155 62.6173ZM25.8964 58.2046C25.8242 57.6483 25.8126 57.0753 25.6694 56.5371C25.2979 55.1439 24.8709 53.7648 24.4582 52.3832C24.4285 52.284 24.3163 52.1231 24.266 52.1321C24.1383 52.154 24.0196 52.2506 23.9048 52.3265C23.8738 52.3471 23.8674 52.4051 23.8519 52.4463C23.2611 54.061 22.6291 55.6628 22.0899 57.2955C21.4733 59.16 21.1263 61.0786 21.1844 63.0577C21.2115 63.9873 21.3598 64.8423 22.2047 65.4115C22.304 65.4784 22.3801 65.5814 22.4666 65.669C22.9748 66.1763 23.0715 66.1892 23.6636 65.7656C23.8429 65.6368 24.0377 65.4977 24.1525 65.3175C24.4633 64.8217 24.8052 64.3286 25.009 63.7878C25.6849 61.9941 25.779 60.1051 25.8964 58.2046ZM92.2505 43.6981C92.2234 43.6775 92.1976 43.6582 92.1705 43.6376C91.9809 43.7264 91.7848 43.8037 91.6016 43.9041C89.1934 45.2227 87.4817 47.1915 86.2975 49.6354C85.5804 51.1174 85.1831 52.6742 85.3649 54.3404C85.4462 55.0859 85.592 55.7825 86.3375 56.1856C86.5697 56.3105 86.7813 56.4895 86.9683 56.6774C87.2443 56.9543 87.5629 57.02 87.937 57.0071C88.1679 56.9994 88.2827 56.9375 88.324 56.7084C88.3846 56.3697 88.4723 56.0362 88.5381 55.6988C88.9625 53.4996 89.3856 51.299 89.8061 49.0984C90.0267 47.9447 90.3904 46.8528 91.0715 45.8729C91.4314 45.354 91.7203 44.7862 92.0299 44.2338C92.124 44.0664 92.1782 43.8758 92.2517 43.6968L92.2505 43.6981ZM66.9941 87.1519C67.1244 87.1184 67.2302 87.0991 67.3308 87.0656C68.3072 86.7463 69.1096 86.1604 69.81 85.429C71.0896 84.0924 71.9899 82.5048 72.7045 80.8231C73.65 78.5981 74.5155 76.3396 75.4133 74.0953C75.4198 74.0811 75.4017 74.0566 75.394 74.036C75.3733 74.0334 75.3501 74.0231 75.3333 74.0283C75.2495 74.0566 75.1657 74.0875 75.0844 74.1223C74.0357 74.5704 73.1328 75.2271 72.3511 76.0512C71.1244 77.344 70.2576 78.8698 69.5842 80.4987C68.6942 82.6516 67.8635 84.829 67.0096 86.9961C66.9954 87.0321 67.0018 87.0772 66.9954 87.1519H66.9941ZM27.6043 36.0676C27.2431 36.1629 26.9348 36.1809 26.7 36.3213C26.166 36.6393 25.6604 37.0076 25.1573 37.3733C23.839 38.3313 22.5814 39.3575 21.6513 40.7198C20.4633 42.462 20.3124 44.2943 21.1818 46.2154C21.2837 46.4395 21.3946 46.5013 21.6101 46.3751C21.9738 46.1613 22.3582 45.9785 22.7026 45.7377C23.9074 44.8943 24.7123 43.7187 25.2631 42.3899C25.8397 40.9979 26.3105 39.5622 26.8303 38.1471C27.0702 37.4943 27.3153 36.8427 27.6043 36.0663V36.0676ZM75.5784 83.5014C75.7435 83.5014 75.7874 83.5027 75.83 83.5014C75.8738 83.5001 75.919 83.4976 75.9628 83.4911C78.651 83.052 81.0515 82.0091 83.0586 80.133C84.5549 78.7346 85.7803 77.1109 86.9825 75.4679C87.0044 75.4383 87.0044 75.3932 87.0173 75.3494C86.9644 75.3417 86.9296 75.3275 86.8999 75.334C86.6381 75.3868 86.3736 75.428 86.1182 75.5001C83.3411 76.2714 80.8838 77.6504 78.6574 79.4544C77.6848 80.2424 76.8038 81.1257 76.1744 82.2202C75.9512 82.6091 75.7926 83.034 75.5758 83.5014H75.5784ZM18.1454 50.7814C18.1351 52.5905 18.4304 54.3623 18.8239 56.1199C18.8574 56.268 18.8703 56.4173 19.0754 56.3955C19.2586 56.3749 19.4533 56.4688 19.5888 56.2139C20.0493 55.3525 20.5549 54.5168 21.0154 53.6554C21.3598 53.0116 21.7004 52.36 21.9687 51.6814C22.2537 50.9591 22.2112 50.265 21.8384 49.5169C21.0064 47.852 20.1047 46.2116 19.5617 44.4153C19.5359 44.329 19.3785 44.2325 19.2831 44.2338C19.1928 44.235 19.0599 44.3432 19.0264 44.4333C18.9503 44.6394 18.9206 44.8621 18.8755 45.0797C18.4846 46.961 18.1338 48.8486 18.1454 50.7827V50.7814ZM17.7881 62.7061C17.6178 63.9783 17.8358 65.1372 18.2279 66.2677C19.1554 68.9422 20.8632 71.1337 22.6433 73.2725C22.7426 73.3922 23.0277 73.3845 23.2224 73.3755C23.2689 73.3729 23.3256 73.127 23.3385 72.9892C23.354 72.8141 23.3231 72.6351 23.3218 72.4574C23.3192 71.2805 23.265 70.101 23.3334 68.9293C23.4017 67.7305 23.4649 67.7215 22.553 66.9013C21.0399 65.5415 19.5101 64.1998 17.9867 62.8516C17.9403 62.8104 17.8848 62.777 17.7868 62.7061H17.7881ZM81.4901 54.5541C81.3882 54.6765 81.3404 54.7215 81.3095 54.7743C80.9999 55.3023 80.8451 55.8752 80.8167 56.4843C80.7497 57.8865 81.1727 59.1819 81.7093 60.4464C82.6084 62.5645 83.8751 64.4754 85.1134 66.4016C85.134 66.4338 85.1779 66.4519 85.2321 66.4918C85.9996 65.5827 86.4807 64.5964 86.3504 63.3809C86.2382 62.3302 85.7932 61.4095 85.1715 60.5906C84.3446 59.5025 83.4546 58.4608 82.58 57.4101C82.3478 57.1307 82.1711 56.8474 82.095 56.483C81.9957 56.0066 81.8474 55.5392 81.7093 55.0705C81.6642 54.916 81.5855 54.7717 81.4913 54.5541H81.4901ZM81.9983 53.9335C81.9609 53.967 81.9222 54.0017 81.8848 54.0352C82.0538 54.5593 82.2008 55.0924 82.3956 55.6061C83.0083 57.2183 84.0363 58.5728 85.1108 59.8965C85.2501 60.0678 85.3714 60.2584 85.6487 60.2159C85.699 60.2081 85.8048 60.3021 85.8216 60.3665C86.1518 61.6168 86.9606 62.7113 86.9928 64.0916C87.1321 64.0543 87.2443 64.0556 87.314 64.0028C87.8325 63.6088 88.3472 63.207 88.8503 62.795C88.9109 62.7461 88.9238 62.6121 88.9212 62.5182C88.8812 61.2279 88.6516 59.9828 88.0338 58.8317C87.2534 57.3741 86.0512 56.3311 84.6748 55.4761C83.8003 54.9327 82.8909 54.446 81.9983 53.9348V53.9335ZM91.9383 45.2407C91.8919 45.2355 91.8454 45.2304 91.8003 45.2252C91.7242 45.3823 91.6481 45.5394 91.5745 45.6965C90.2085 48.5963 89.5081 51.684 88.9702 54.8207C88.8516 55.5134 88.8773 56.2448 88.4917 56.877C88.2169 57.329 88.2505 57.7603 88.5626 58.1801C88.7148 58.3836 88.8593 58.5922 89.0218 58.8188C89.165 58.7389 89.294 58.6758 89.414 58.5999C90.562 57.8749 91.1695 56.7753 91.5475 55.5186C91.9409 54.2078 92.0544 52.8558 92.057 51.4999C92.0608 50.1234 91.9744 48.7456 91.9409 47.3679C91.9241 46.6584 91.9383 45.9489 91.9383 45.2407ZM64.0983 87.797C63.5346 88.1086 63.0315 88.415 62.5065 88.6738C60.6104 89.6074 58.5904 90.1894 56.5433 90.6697C53.7842 91.3161 51.0264 91.9534 48.3859 93.0157C46.9606 93.5887 45.5262 94.1386 44.2737 95.0541C43.5243 95.6013 43.5204 95.7249 44.1963 96.361C44.8387 96.9662 44.8503 96.9868 45.6126 96.5451C46.9593 95.7635 48.2892 94.951 49.6294 94.1579C50.2795 93.7729 50.9116 93.3467 51.5965 93.0376C52.4349 92.6591 53.3147 92.3655 54.1866 92.0668C56.8516 91.1525 59.5746 90.4662 62.3608 90.0362C62.5994 89.9988 62.7632 89.9293 62.7219 89.6447C62.6923 89.44 62.8045 89.3318 62.9838 89.2365C63.2482 89.0975 63.5101 88.943 63.7384 88.7524C64.0131 88.5232 64.1473 88.2129 64.1008 87.7983L64.0983 87.797ZM67.5475 87.6721L67.6287 87.7635C68.244 87.5845 68.8787 87.4532 69.4707 87.2175C70.4575 86.8235 71.4946 86.4797 72.3704 85.9041C74.0538 84.7994 75.0521 83.1962 75.3166 81.1605C75.4804 79.9038 75.4094 78.6548 75.3308 77.4019C75.305 76.986 75.2663 76.5714 75.2327 76.1555C75.1128 76.2533 75.0573 76.3589 75.0083 76.4658C74.1428 78.329 73.2398 80.1755 72.4272 82.0606C71.8841 83.3224 71.1876 84.4453 70.2176 85.4251C69.6913 85.9582 69.2089 86.5055 68.4878 86.7862C68.2866 86.8647 68.1021 87.0128 67.9422 87.1634C67.7874 87.3089 67.6765 87.4995 67.5449 87.6708L67.5475 87.6721ZM81.9867 66.0347L81.8693 66.1351C81.908 67.0995 81.9557 68.0627 81.9776 69.0271C81.9841 69.3066 81.957 69.6027 81.868 69.8667C81.6178 70.6135 81.3211 71.3449 81.0567 72.0866C80.7148 73.0484 80.3795 74.0116 80.0596 74.9799C79.9435 75.334 80.0325 75.4099 80.3898 75.3211C81.0154 75.164 81.6358 74.9889 82.264 74.846C83.4249 74.5833 84.057 73.848 84.2427 72.6969C84.2582 72.5977 84.2853 72.5012 84.2943 72.402C84.3459 71.8844 84.4981 71.35 84.4194 70.8517C84.2401 69.7096 83.8622 68.6099 83.3437 67.5734C83.1424 67.1704 82.8754 66.7918 82.5904 66.4416C82.4433 66.2613 82.1905 66.1673 81.9854 66.0347H81.9867ZM70.887 87.5433C71.1553 87.6 71.3927 87.6412 71.6262 87.703C72.2685 87.8716 72.9161 88.0249 73.5442 88.2373C73.7545 88.3082 73.9119 88.3609 74.1299 88.2747C76.5846 87.3154 79.0663 86.4411 81.6448 85.8681C81.8654 85.8192 82.086 85.7625 82.3079 85.7084C82.1789 85.335 81.9648 85.1303 81.6074 85.071C81.3894 85.035 81.1792 84.9552 80.9638 84.8985C79.0122 84.377 77.0618 84.2508 75.1953 85.1586C73.7674 85.8526 72.3949 86.6613 70.9993 87.421C70.9644 87.4403 70.9425 87.4828 70.8883 87.5433H70.887ZM30.6458 74.1674C30.5336 73.3471 30.3221 72.5965 29.9403 71.9204C29.3224 70.8285 28.6529 69.7662 27.9938 68.6975C27.403 67.7382 26.869 66.7558 26.6549 65.6329C26.6188 65.4411 26.5865 65.2479 26.553 65.0574C26.2266 65.0458 26.0202 65.1372 25.9712 65.4578C25.8306 66.3656 25.5972 67.2695 25.5572 68.1812C25.4669 70.2581 25.9519 72.2333 26.8187 74.1197C26.9541 74.4146 27.127 74.4893 27.4211 74.3708C27.4469 74.0978 27.4533 73.83 27.4998 73.5686C27.6197 72.8926 27.7449 72.2179 27.8945 71.5483C27.9461 71.3153 28.0751 71.0989 28.364 71.0191C28.4311 71.1904 28.4904 71.3449 28.5523 71.4968C28.8709 72.2668 29.1883 73.0407 29.7481 73.6781C29.9699 73.9304 30.2215 74.1468 30.6446 74.1661L30.6458 74.1674ZM89.8719 43.1882C90.2653 43.0131 90.571 42.78 90.5762 42.2907C90.5813 41.8014 90.6136 41.3121 90.6032 40.8241C90.5723 39.3446 90.3607 37.905 89.6216 36.5852C88.8606 35.2255 87.7732 34.1452 86.6484 33.0957C86.6226 33.0713 86.5723 33.0726 86.5181 33.0584C86.4227 34.1928 86.5426 35.2937 86.958 36.3187C87.8854 38.6094 88.8838 40.8718 89.8706 43.1869L89.8719 43.1882ZM37.6397 87.4132C37.6449 87.3772 37.6487 87.3411 37.6539 87.3051C33.1018 84.435 29.7816 80.5888 28.1666 75.3765C28.0905 75.4743 28.0415 75.5529 28.0428 75.6301C28.0544 76.5405 27.9332 77.4804 28.1202 78.3548C28.5833 80.5167 29.6126 82.4121 31.2353 83.9521C32.9445 85.5758 35.0225 86.5866 37.1728 87.4686C37.2992 87.5201 37.4836 87.4351 37.6397 87.4145V87.4132ZM23.2173 52.6961C22.9761 52.5274 22.8316 52.5931 22.6833 52.7836C21.3598 54.4756 20.244 56.286 19.5346 58.3205C19.1012 59.5605 18.8458 60.8314 19.185 62.1434C19.3837 62.9147 19.7913 63.5573 20.4956 64.0968C20.8877 60.1283 21.9403 56.3787 23.2186 52.6948L23.2173 52.6961ZM81.1199 86.3188C80.9612 86.3561 80.8451 86.378 80.7329 86.4102C78.7245 86.9639 76.7961 87.7326 74.8832 88.5502C74.6058 88.6687 74.4343 88.8142 74.353 89.1168C74.117 89.995 73.561 90.5087 72.6168 90.5473C72.5446 90.5499 72.4362 90.604 72.413 90.6619C72.2698 91.0199 72.6258 91.4487 73.0089 91.3843C74.433 91.1435 75.7835 90.671 77.085 90.058C78.3001 89.4863 79.4456 88.8065 80.3395 87.7751C80.6955 87.363 80.9857 86.9111 81.1199 86.32V86.3188ZM76.9999 77.1186C77.0386 77.1418 77.0786 77.1663 77.1173 77.1894C77.5842 76.8611 78.0628 76.5469 78.5168 76.1993C79.194 75.6816 79.7964 75.1035 79.9564 74.2034C79.9886 74.0206 80.0854 73.8493 80.1524 73.6742C80.6839 72.2758 81.2759 70.8942 81.4862 69.3967C81.561 68.8675 81.5997 68.3318 81.4165 67.7537C81.3275 67.8696 81.2721 67.9352 81.2231 68.006C80.7432 68.7142 80.2569 69.4186 79.7861 70.1332C78.7245 71.744 77.7687 73.4077 77.3224 75.3082C77.1831 75.9031 77.1057 76.5134 76.9999 77.1173V77.1186ZM95.305 56.1817C95.1231 56.2409 94.9967 56.2706 94.8806 56.3208C93.9183 56.7431 93.2682 57.4899 92.7909 58.3926C91.7925 60.2802 91.4984 62.3134 91.5939 64.42C91.5978 64.5024 91.6326 64.5835 91.6764 64.7625C92.0015 64.5294 92.2969 64.3569 92.5433 64.1316C93.1018 63.6178 93.4475 62.9559 93.7429 62.2684C94.3285 60.906 94.6639 59.4716 94.9528 58.0256C95.0715 57.432 95.1798 56.8358 95.3037 56.1804L95.305 56.1817ZM27.4262 77.7972C27.3385 77.2139 27.2315 76.6679 27.1812 76.1168C27.1321 75.5722 26.9219 75.1022 26.6897 74.618C26.3208 73.8506 25.9751 73.0639 25.7055 72.2565C25.1663 70.6418 25.0064 68.9628 25.0103 67.2669C25.0103 67.1356 25.0103 67.0043 25.0103 66.8729C24.9006 66.9051 24.8722 66.9373 24.8542 66.9746C24.0815 68.525 23.7616 70.1654 23.9461 71.8844C24.1783 74.0399 25.107 75.8902 26.5117 77.5268C26.7736 77.832 27.0457 77.868 27.4262 77.7985V77.7972ZM17.0477 64.2732C17.0064 64.3659 16.9909 64.3839 16.9896 64.4032C16.8606 67.3017 17.6242 69.9401 19.305 72.3093C19.3798 72.4162 19.4856 72.505 19.5901 72.5874C20.7174 73.4772 21.8487 74.3605 22.9722 75.2554C23.2212 75.4537 23.4675 75.4357 23.7629 75.3533C23.6004 74.7249 23.2405 74.2485 22.8097 73.8287C22.2756 73.3085 21.7094 72.8231 21.1638 72.3145C20.978 72.1419 20.7716 71.9694 20.6465 71.7556C19.5488 69.886 18.5156 67.9816 17.7081 65.9651C17.4901 65.423 17.2837 64.8771 17.0477 64.2719V64.2732ZM19.6094 42.0911C19.7565 42.3255 19.8867 42.5341 20.048 42.7929C20.1744 42.5624 20.2647 42.4002 20.3524 42.2354C21.6668 39.7785 23.3618 37.6758 25.8526 36.3019C26.0086 36.2157 26.0835 35.9813 26.1957 35.8152C26.166 35.7908 26.135 35.7663 26.1054 35.7418C24.4543 36.2723 22.8406 36.8865 21.414 37.9063C19.9074 38.9841 18.909 40.4095 18.4807 42.2173C18.3943 42.5843 18.3427 42.959 18.2821 43.2912C18.7232 42.892 19.1567 42.5006 19.6094 42.0911ZM84.9689 75.3893C84.9612 75.3597 84.9535 75.3314 84.9457 75.3018C84.8619 75.2876 84.7793 75.267 84.6955 75.2619C83.8248 75.2091 82.9618 75.2593 82.1131 75.464C80.2956 75.9031 78.691 76.7117 77.4952 78.1951C76.8916 78.9432 76.5175 79.7943 76.4233 80.8695C79.154 78.7539 81.9931 76.9641 84.9689 75.3893ZM35.2469 87.4158C34.4072 86.8609 33.5894 86.3046 32.7561 85.7754C32.1383 85.3827 31.4998 85.0195 30.8664 84.6513C30.682 84.5444 30.4291 84.5212 30.4408 84.2135C30.442 84.1736 30.2911 84.0989 30.206 84.0899C29.9403 84.0628 29.6733 84.0602 29.4062 84.0487C28.4117 84.0062 27.4533 84.1349 26.5749 84.6461C26.4782 84.7028 26.3892 84.7697 26.2718 84.8483C26.3621 84.8985 26.3982 84.9255 26.4395 84.941C29.0128 85.8874 31.5436 86.9497 34.2021 87.6592C34.6394 87.7764 34.9451 87.7081 35.2482 87.4158H35.2469ZM94.6471 55.431C94.6084 55.4375 94.5736 55.4375 94.5426 55.449C92.5691 56.2306 90.9786 57.5131 89.6694 59.1626C89.6113 59.236 89.5584 59.339 89.5597 59.4291C89.5649 60.1167 89.5816 60.8056 89.601 61.4932C89.601 61.5408 89.6448 61.5872 89.6668 61.6323C90.055 61.5769 90.2343 61.2936 90.4407 61.0284C90.531 60.9125 90.7 60.7708 90.8187 60.7824C91.2005 60.8198 91.3604 60.6266 91.5165 60.3214C92.3085 58.7711 93.263 57.329 94.5001 56.0929C94.6961 55.8971 94.7954 55.7182 94.6471 55.4323V55.431ZM88.3614 40.358C86.8986 38.178 85.8783 35.8397 86.0138 33.1357C85.6049 33.1653 85.3972 33.3108 85.2708 33.6597C84.8567 34.7993 84.7006 35.9762 84.6181 37.1788C84.5729 37.8329 84.7858 38.2579 85.3224 38.6184C86.1518 39.1759 86.9515 39.7798 87.7461 40.3889C87.9577 40.5511 88.1124 40.6168 88.3614 40.358ZM18.9051 57.3702C17.423 53.7159 17.4346 49.9315 17.8784 46.0184C17.779 46.1356 17.7352 46.1704 17.7158 46.2141C16.9935 47.8057 16.4995 49.459 16.453 51.2179C16.3963 53.403 17.0838 55.3666 18.2847 57.1719C18.4292 57.3882 18.5852 57.4848 18.9064 57.3702H18.9051ZM22.1067 77.9788L22.0783 78.0779C22.1673 78.1603 22.255 78.244 22.3453 78.3251C23.385 79.2638 24.4221 80.2064 25.4695 81.1373C25.6655 81.3124 25.8887 81.467 26.1196 81.5932C26.8793 82.0091 27.6468 82.4134 28.4182 82.8074C28.5743 82.8872 28.7626 82.9052 29.0102 82.9709C28.9587 82.7636 28.9548 82.6361 28.8993 82.537C28.6878 82.1623 28.5085 81.7528 28.2286 81.4335C26.7774 79.7737 24.9561 78.6882 22.8419 78.0882C22.6059 78.0213 22.3518 78.0135 22.1067 77.9775V77.9788ZM62.6549 94.4038C62.6639 94.3742 62.6729 94.3446 62.6819 94.3163C60.5033 92.8496 58.0473 92.2457 55.4469 92.0539C55.5501 92.2277 55.661 92.3809 55.808 92.4878C56.1228 92.7144 56.4324 92.9681 56.7832 93.1213C58.095 93.6943 59.4211 94.2326 60.7458 94.7772C60.8206 94.8081 60.9199 94.8017 61.0012 94.7837C61.5533 94.6613 62.1028 94.5313 62.6536 94.4051L62.6549 94.4038ZM21.5017 36.4809C22.1544 36.5144 22.5207 36.2594 22.7078 35.6736C23.1025 34.4387 23.5398 33.2168 23.9564 31.9871C24.097 31.5725 24.226 31.154 24.3614 30.7368C24.3395 30.7123 24.3176 30.6879 24.2944 30.6634C24.0067 30.7896 23.7036 30.8887 23.434 31.0458C22.7413 31.4514 22.3234 32.0862 22.0396 32.8189C21.583 33.9984 21.4953 35.2293 21.5004 36.4809H21.5017ZM21.4682 76.7941C21.4553 76.8276 21.4411 76.8611 21.4282 76.8959C21.6913 77.0452 21.9429 77.2165 22.2176 77.3401C23.8184 78.0625 25.4501 78.7269 26.8316 79.851C26.9696 79.963 27.1128 80.0789 27.2715 80.1523C27.4133 80.218 27.581 80.2257 27.7977 80.272C27.4017 79.0951 26.7232 78.2762 25.7365 77.7109C24.6787 77.1057 23.5191 76.8727 22.3208 76.7954C22.0383 76.7774 21.7532 76.7929 21.4695 76.7929L21.4682 76.7941ZM23.2702 35.7418C23.4791 35.68 23.5823 35.6543 23.6816 35.6195C24.1409 35.4534 24.5949 35.2705 25.0593 35.1212C25.2876 35.0478 25.365 34.9345 25.3624 34.6937C25.3508 33.4717 25.3572 32.2485 25.3559 31.0265C25.3559 30.9196 25.3456 30.8115 25.3405 30.6994C25.0451 30.6673 24.8967 30.7934 24.8077 31.0304C24.524 31.7875 24.2028 32.5343 23.9512 33.3018C23.6984 34.0743 23.5101 34.8688 23.2702 35.7418ZM83.9667 38.2205C83.9331 37.6372 83.8003 37.2213 83.5513 36.8015C82.9683 35.8178 82.4601 34.7903 81.9157 33.7833C81.8319 33.6262 81.721 33.4846 81.5713 33.258C81.5713 33.9185 81.5675 34.4709 81.5713 35.022C81.5816 36.3702 82.1428 37.4016 83.3488 38.0441C83.5204 38.1355 83.7293 38.1561 83.9654 38.2205H83.9667ZM82.2176 33.0597C82.5246 34.1761 82.9128 35.2306 83.4881 36.2092C83.541 36.2981 83.7293 36.3496 83.8493 36.3406C83.919 36.3354 84.0118 36.1835 84.035 36.0843C84.2698 35.0684 84.0892 34.1748 83.3656 33.3674C83.0238 32.985 82.7013 32.918 82.2176 33.0584V33.0597ZM44.5291 88.7653C44.5446 88.8979 44.5562 89.0473 44.5807 89.194C44.6439 89.5687 44.8039 89.8108 45.2269 89.919C46.5517 90.2551 47.8596 90.6542 49.1792 91.007C49.9261 91.2066 50.6549 91.5234 51.4572 91.441C51.5939 91.4268 51.7552 91.4783 51.7668 91.2465C51.7771 91.0341 51.6984 90.9658 51.4894 90.9311C50.2279 90.725 48.9625 90.5358 47.7139 90.2679C47.0354 90.1224 46.3672 89.8791 45.7326 89.5945C45.303 89.4014 44.9406 89.0576 44.5278 88.7665L44.5291 88.7653ZM84.9341 48.6426C85.0554 48.9555 85.1315 49.1963 85.2424 49.4216C85.2901 49.5182 85.4178 49.6508 85.4939 49.6418C85.6565 49.6238 85.8899 49.6418 85.899 49.3585C85.9028 49.2092 85.948 49.0598 85.9815 48.8731C85.6397 48.7971 85.3224 48.7276 84.9341 48.6426ZM70.464 90.3941C70.3027 90.0387 69.9764 90.0194 69.6732 89.9666C69.6307 89.9589 69.543 90.0207 69.5314 90.0658C69.4707 90.295 69.4269 90.5293 69.3701 90.7997C69.8138 90.7662 70.1969 90.7444 70.464 90.3941ZM44.0531 85.9235C44.0286 85.6981 44.0738 85.438 43.9796 85.3698C43.7242 85.1844 43.4082 85.0788 43.0431 84.9075C43.4069 85.2732 43.6997 85.5681 44.0531 85.9235ZM18.0951 60.9215C18.0564 60.9356 18.0177 60.9511 17.979 60.9653C17.979 61.1494 17.9699 61.3348 17.9816 61.5189C18.0035 61.8679 18.0873 61.913 18.5169 61.7713C18.3737 61.4816 18.2357 61.2022 18.0964 60.9215H18.0951ZM84.0789 48.1314C83.9796 47.6228 83.9641 47.6112 83.5642 47.7232V48.295C83.7564 48.2344 83.9086 48.1855 84.0789 48.1314ZM41.5417 80.6519C41.5327 80.2334 41.4591 80.0403 41.0115 80.0969C41.0876 80.7008 41.1212 80.7356 41.5417 80.6519ZM41.8538 84.104C41.2901 84.059 41.2695 84.198 41.2115 85.0221C41.4462 84.6873 41.6436 84.4041 41.8538 84.104ZM42.6729 87.9631C42.6729 88.1691 42.62 88.3481 42.6832 88.4086C42.8664 88.585 43.0896 88.6082 43.305 88.3584C43.127 88.2463 42.9528 88.1369 42.6742 87.9631H42.6729ZM25.9815 46.0171C25.801 46.0339 25.6978 46.0442 25.543 46.0583C25.5855 46.227 25.6023 46.3648 25.6629 46.4794C25.6797 46.5116 25.8861 46.5026 25.8977 46.4717C25.9467 46.3493 25.9519 46.209 25.9815 46.0171ZM37.0167 89.3988C36.9793 89.3447 36.9419 89.2906 36.9032 89.2365C36.7174 89.3846 36.533 89.5327 36.3472 89.6808C36.3756 89.7194 36.4027 89.7567 36.4311 89.7954C36.6259 89.664 36.8219 89.5314 37.0167 89.4001V89.3988Z" fill="url(#paint1_linear_383_207)"/>
<path d="M66.82 21.8483C66.9967 21.4517 67.1347 21.1388 67.2753 20.8285C67.9628 19.2988 68.6503 17.7703 69.3417 16.2419C69.3908 16.1325 69.4449 16.0114 69.5314 15.9342C70.1363 15.3921 70.7387 14.8487 71.363 14.3285C71.9254 13.8585 72.5729 13.7787 73.2424 14.0671C74.028 14.4058 74.8032 14.7689 75.5733 15.1397C75.6584 15.1809 75.75 15.3573 75.7306 15.4462C75.6055 16.005 75.4572 16.56 75.2998 17.1111C75.2405 17.3184 75.1334 17.5128 75.0122 17.7974C75.5204 17.7446 75.9564 17.6905 76.3924 17.6557C77.4346 17.5708 78.4768 17.4961 79.5178 17.4137C79.6945 17.3995 79.8106 17.4471 79.8751 17.6287C80.2118 18.579 80.5497 19.528 80.9019 20.4731C81.0012 20.7409 80.8993 20.8169 80.6607 20.8825C79.6752 21.1542 78.6936 21.4388 77.7132 21.7285C77.4049 21.8199 77.1018 21.932 76.8038 22.0543C76.2505 22.2809 75.9473 22.7136 75.9641 23.2994C75.9964 24.3939 76.324 25.433 76.6271 26.5687C76.867 26.3344 77.0696 26.167 77.236 25.9687C78.2434 24.766 79.2482 23.5608 80.2376 22.3427C80.4401 22.0929 80.6697 21.959 80.9767 21.8856C82.2524 21.5856 83.4507 21.8006 84.5974 22.3878C85.2205 22.7071 85.8383 23.0393 86.4549 23.3728C86.7129 23.5119 86.7193 24.1506 86.4846 24.3978C84.8129 26.1554 83.1347 27.9066 81.4785 29.6784C80.7574 30.4497 80.0828 31.266 79.3862 32.0605C79.105 32.3811 78.424 32.5549 78.0202 32.4081C77.2334 32.1236 76.5575 31.6575 75.9306 31.1179C75.5255 30.769 75.1231 30.4175 74.7464 30.0402C74.6432 29.9372 74.5607 29.7106 74.6033 29.5869C74.7451 29.171 74.9412 28.7745 75.1282 28.3753C75.1876 28.2478 75.2843 28.1384 75.4327 27.9182C74.0744 27.962 72.8077 28.0019 71.5243 28.0431C71.4004 27.3864 71.2792 26.7361 71.1476 26.0382C70.4704 26.1271 69.8242 26.2288 69.174 26.2906C68.9444 26.3125 68.6852 26.288 68.4749 26.2018C67.9203 25.9738 67.3785 25.7112 66.8458 25.4369C66.5813 25.3004 66.2834 25.1562 66.1092 24.9309C65.7364 24.4519 65.2282 24.3952 64.6994 24.3373C63.9254 24.2523 63.1515 24.1686 62.3801 24.0643C62.2705 24.0488 62.1608 23.933 62.0809 23.839C62.0189 23.7668 62.0022 23.6574 61.9686 23.5634C61.7132 22.8604 61.2373 22.4419 60.4698 22.3826C60.2492 22.3659 60.0325 22.2951 59.8119 22.2745C59.7139 22.2655 59.5668 22.2861 59.5152 22.3504C59.0122 22.9943 58.3375 23.0522 57.6423 22.8359C56.8916 22.6015 56.1666 22.2809 55.4391 21.9783C55.3656 21.9474 55.2934 21.7723 55.314 21.6847C55.4714 21.0062 55.5888 20.3108 55.8351 19.6644C56.5536 17.7755 57.6281 16.0694 58.6781 14.3542C59.4146 13.1503 60.1473 11.9425 60.8941 10.745C60.9548 10.6472 61.1134 10.548 61.2244 10.5519C62.3479 10.5815 63.4701 10.6356 64.5923 10.6755C64.8516 10.6845 64.947 10.7952 64.987 11.0553C65.3714 13.5675 65.7661 16.0771 66.1673 18.5867C66.3143 19.5061 66.4846 20.4216 66.6523 21.3384C66.6794 21.4839 66.7464 21.6216 66.8251 21.8496L66.82 21.8483ZM72.097 22.1238C72.1266 22.1303 72.155 22.1367 72.1847 22.1431C72.3898 23.208 72.5846 24.2742 72.8038 25.3365C72.9277 25.9326 73.0902 26.5211 73.2398 27.1108C73.3005 27.349 73.4217 27.4366 73.7003 27.3812C74.3324 27.2563 74.9735 27.1816 75.612 27.0954C75.7809 27.0722 75.8441 27.0117 75.8093 26.834C75.7087 26.3112 75.6055 25.7884 75.5294 25.2618C75.3953 24.3398 75.2817 23.4166 75.1579 22.4934C75.127 22.2668 75.2289 22.1625 75.443 22.0878C76.9238 21.5753 78.3982 21.0435 79.879 20.5323C80.1073 20.4538 80.1873 20.3443 80.1873 20.1048C80.1885 19.4971 79.857 19.009 79.6481 18.4747C79.5668 18.2674 79.4456 18.1605 79.225 18.1901C78.5349 18.2854 77.8177 18.2996 77.1611 18.5043C76.0931 18.8378 75.0638 19.2975 74.0176 19.7005C73.8809 19.7533 73.739 19.7932 73.543 19.8576C73.5946 18.2339 74.5401 17.0235 75.1528 15.6779C74.3749 15.2234 73.6333 14.7817 72.7613 14.6118C72.4349 14.5474 72.2324 14.6182 72.0376 14.9041C71.0586 16.3308 70.2601 17.854 69.5817 19.4404C68.9612 20.8916 68.3911 22.3595 68.2118 23.9471C68.186 24.1763 68.2543 24.2896 68.4478 24.3926C69.0089 24.6914 69.6126 24.815 70.2382 24.8781C70.5297 24.9077 70.6961 24.8214 70.8329 24.5407C71.2314 23.7244 71.6713 22.9273 72.0944 22.1225L72.097 22.1238ZM66.3285 22.9775C66.3285 22.8887 66.335 22.8449 66.3285 22.8037C66.1221 21.5792 65.9093 20.3546 65.7068 19.1288C65.3134 16.7428 64.9186 14.3568 64.5368 11.9683C64.4182 11.2227 64.4349 11.2201 63.6945 11.1725C63.661 11.1699 63.6287 11.1622 63.5952 11.1609C62.8058 11.1287 62.0125 11.0927 61.2553 11.3785C61.1134 11.4326 60.9561 11.5459 60.8877 11.6747C59.888 13.5701 58.878 15.4629 57.9222 17.3802C57.4191 18.3897 57.0154 19.4481 56.5446 20.5349C57.5481 20.7525 58.4743 20.9521 59.3914 21.1504C59.6042 20.6907 59.6042 20.6868 59.8055 20.6765C60.9986 20.6173 62.1376 20.9199 63.265 21.1723C63.3553 21.5972 63.4288 21.9899 63.5294 22.3749C63.5591 22.4882 63.6468 22.6196 63.7448 22.6762C64.5588 23.1436 65.4436 22.9531 66.3285 22.9775ZM85.8267 23.6278C85.2205 23.4012 84.6761 23.1848 84.1228 22.993C83.7887 22.8771 83.4404 22.8011 83.0986 22.7033C82.7168 22.5951 82.4472 22.7007 82.1763 23.0174C80.453 25.0429 78.7116 27.0542 76.9586 29.0539C76.7084 29.3384 76.6903 29.5985 76.8464 29.896C76.9535 30.1007 77.0747 30.308 77.2321 30.4754C77.5133 30.7741 77.8216 31.0497 78.1273 31.3253C78.5297 31.6884 78.562 31.7141 78.958 31.3459C80.2272 30.1638 81.5236 29.0049 82.7116 27.7443C83.6842 26.7117 84.5252 25.5541 85.4036 24.4364C85.5881 24.2008 85.6874 23.8995 85.8267 23.6278Z" fill="url(#paint2_linear_383_207)"/>
<path d="M46.78 11.9991C46.8393 11.5935 46.8367 11.2021 46.9619 10.8557C47.1373 10.3716 47.3979 9.91576 47.6442 9.45994C47.6868 9.38268 47.8442 9.33504 47.9512 9.32988C49.1741 9.25906 50.3969 9.19082 51.6197 9.13674C53.3108 9.06077 55.0019 9.00411 56.6916 8.92042C56.9612 8.90754 57.0554 9.00669 57.0709 9.23975C57.1341 10.2583 57.2024 11.2781 57.2463 12.2979C57.2515 12.4215 57.1483 12.5915 57.0425 12.6713C56.4594 13.1129 55.7977 13.4065 55.0896 13.5778C54.8161 13.6435 54.7297 13.7761 54.7439 14.0388C54.8097 15.3483 54.8909 16.6578 54.918 17.9686C54.9322 18.642 54.9012 19.3271 54.7929 19.9902C54.642 20.9186 54.0951 21.583 53.2102 21.9474C52.266 22.3376 51.2766 22.4109 50.2382 22.3955C50.1879 21.6332 50.1441 20.8941 50.0912 20.155C49.9609 18.3382 49.8332 16.52 49.6887 14.7045C49.6475 14.1855 49.5636 14.1379 49.0386 14.1186C48.404 14.0967 47.7706 14.0645 47.136 14.0542C47.0431 14.0529 46.8883 14.1315 46.8625 14.2062C46.5439 15.1384 46.2395 16.0745 45.9428 17.0132C45.85 17.3042 45.9364 17.5192 46.2111 17.7111C47.0418 18.2892 47.8532 18.897 48.6607 19.5086C48.7626 19.5859 48.8567 19.7584 48.8477 19.8795C48.7535 21.0718 48.3833 22.1637 47.5655 23.0638C46.9012 23.7952 46.0654 23.9883 45.2128 23.584C44.9032 23.4372 44.7213 23.5325 44.5704 23.7539C44.4272 23.9625 44.3485 24.2136 44.2131 24.4274C44.1383 24.5458 44.0196 24.6823 43.8958 24.7158C42.8664 24.9927 41.8293 25.245 40.7974 25.5129C40.6039 25.5631 40.5265 25.5013 40.453 25.3223C38.9412 21.6345 37.4204 17.9506 35.9138 14.2602C35.8403 14.0787 35.8261 13.8327 35.8829 13.646C36.0751 13.0125 36.3124 12.3919 36.5317 11.7648C36.5962 11.5794 36.7213 11.5214 36.9161 11.5304C38.3285 11.5948 39.741 11.645 41.1534 11.7107C42.7219 11.7841 44.2892 11.8691 45.8564 11.9489C46.1647 11.9644 46.473 11.9837 46.7787 12.0004L46.78 11.9991ZM43.5836 20.2207C43.6558 20.2284 43.7436 20.2323 43.83 20.2464C44.6078 20.3675 45.3018 20.6675 45.8809 21.2096C46.2047 21.5122 46.5633 21.5688 46.9516 21.3577C47.2727 21.1825 47.5913 20.9984 47.8971 20.7975C48.275 20.5477 48.2802 19.9632 47.9216 19.685C47.1128 19.058 46.3169 18.4116 45.4875 17.8115C45.1457 17.5643 45.0631 17.2823 45.1857 16.9282C45.4166 16.2586 45.6849 15.6032 45.9183 14.935C46.1234 14.3517 46.3337 13.7671 46.4846 13.1683C46.5891 12.7563 46.5414 12.7524 46.1234 12.7164C45.0154 12.6198 43.9087 12.4987 42.8006 12.4138C41.3366 12.3017 39.8713 12.191 38.4046 12.1266C37.5146 12.088 37.4836 12.1434 37.7881 12.97C39.0109 16.2921 40.2505 19.6078 41.4772 22.9286C41.5507 23.1269 41.6629 23.1951 41.8513 23.1513C42.4536 23.0097 43.0547 22.859 43.6584 22.7174C43.8648 22.6685 43.9138 22.5461 43.8854 22.3504C43.7823 21.6512 43.6868 20.9508 43.5849 20.222L43.5836 20.2207ZM51.7255 20.3533C52.4478 20.2245 53.1018 20.1009 53.7584 19.9953C53.9931 19.958 54.0241 19.8267 54.0306 19.6245C54.117 17.2269 54.215 14.8307 54.3001 12.4331C54.3079 12.2155 54.3801 12.1537 54.5865 12.1331C55.105 12.0803 55.621 11.9953 56.1396 11.9309C56.6671 11.8652 56.7858 11.7674 56.7768 11.2253C56.7677 10.6948 56.7174 10.163 56.6594 9.63505C56.6065 9.14962 56.5923 9.16507 56.0931 9.20756C54.7748 9.31701 53.4527 9.39555 52.1357 9.51917C50.9632 9.6299 49.7958 9.78056 48.6271 9.92992C48.5394 9.94151 48.404 10.087 48.4014 10.172C48.3872 10.7604 48.404 11.3502 48.4091 11.9386C48.4117 12.1665 48.5072 12.267 48.7523 12.2773C49.3637 12.303 49.9725 12.3558 50.5826 12.3983C50.9851 12.4266 51.2138 12.6464 51.2689 13.0576C51.2702 13.0692 51.2702 13.0795 51.2714 13.0911C51.3824 14.7637 51.4972 16.4363 51.6042 18.109C51.652 18.8481 51.6842 19.5885 51.7255 20.3546V20.3533Z" fill="url(#paint3_linear_383_207)"/>
<path d="M34.2021 25.3738C34.1428 25.7988 34.0757 26.2224 34.0267 26.6486C33.8642 28.0714 33.7094 29.4956 33.5468 30.9184C33.5365 31.0098 33.4811 31.0999 33.4346 31.1836C33.2618 31.4914 33.0915 31.8017 32.9032 32.1004C32.8555 32.1764 32.751 32.2524 32.6646 32.2652C32.1138 32.3425 31.5617 32.4043 31.0083 32.4623C30.8909 32.4751 30.7632 32.4648 30.6484 32.4326C30.1028 32.2794 29.5636 32.1017 29.0141 31.9639C28.8026 31.9111 28.76 31.8043 28.7536 31.6176C28.7187 30.6621 28.6762 29.708 28.6362 28.7526C28.6336 28.6985 28.6271 28.6431 28.6194 28.5517C27.9254 28.4139 27.2315 28.2762 26.5388 28.1371C26.0925 28.0483 25.6475 27.9517 25.1986 27.8731C25.0283 27.8435 24.9393 27.7869 24.9432 27.6002C24.9845 25.1678 24.809 22.729 25.1663 20.307C25.236 19.837 25.3701 19.376 25.4656 18.9086C25.5017 18.7348 25.5855 18.673 25.7648 18.6846C26.8974 18.758 28.0312 18.8262 29.1637 18.8893C29.405 18.9035 29.405 19.0528 29.405 19.2331C29.4011 20.4126 29.4024 21.5908 29.4024 22.7702C29.4024 22.8913 29.4024 23.0123 29.4024 23.1565C30.6742 23.3561 31.9216 23.5505 33.2476 23.7579C33.1315 23.5686 33.0477 23.4321 32.9651 23.2969C32.3666 22.3093 31.7384 21.3371 31.1786 20.3276C30.7877 19.6233 30.5543 18.8533 30.6691 18.024C30.8032 17.0519 31.3863 16.354 32.1344 15.8003C32.7213 15.3651 33.365 15.0045 33.997 14.6324C34.326 14.4393 34.6329 14.586 34.811 14.9221C35.7165 16.6282 36.631 18.3305 37.5507 20.0302C38.2924 21.4015 38.9567 22.8037 39.2624 24.3463C39.3295 24.6837 39.3888 25.0236 39.4172 25.3661C39.4262 25.4704 39.3527 25.6236 39.2676 25.688C38.4214 26.3202 37.5675 26.946 36.7032 27.5538C36.6039 27.6233 36.3756 27.6465 36.2943 27.5808C35.8816 27.2525 35.4649 26.9164 35.1115 26.5276C34.7942 26.1773 34.5581 25.755 34.2873 25.3648C34.2589 25.3674 34.2305 25.37 34.2034 25.3725L34.2021 25.3738ZM28.7652 19.5306H25.93C25.8087 21.7749 25.6887 23.9858 25.5688 26.1915C27.0986 26.3859 28.5627 26.5829 30.0306 26.7503C30.3492 26.7864 30.4317 26.8971 30.4175 27.2048C30.3788 28.092 30.3853 28.9818 30.3479 29.8703C30.335 30.1716 30.4279 30.3093 30.7271 30.3634C31.0973 30.4304 31.4559 30.59 31.8261 30.6222C32.155 30.6506 32.5162 30.6158 32.8193 30.4973C32.9509 30.4458 33.0167 30.1188 33.0386 29.9089C33.1637 28.7397 33.2708 27.568 33.3753 26.3975C33.4269 25.8129 33.4617 25.2283 33.5056 24.6128C33.1508 24.5382 32.8155 24.4764 32.4827 24.3965C31.3398 24.1235 30.1983 23.8428 29.0554 23.5686C28.8232 23.5132 28.7536 23.3819 28.7561 23.1424C28.769 21.9552 28.7626 20.7667 28.7626 19.5306H28.7652ZM34.2744 15.544C34.0589 15.6123 33.9209 15.6522 33.7855 15.6986C33.1122 15.9316 32.6439 16.4531 32.0944 16.8652C31.7294 17.1394 31.6842 17.4356 31.7835 17.8412C32.0557 18.9511 32.6065 19.9284 33.2476 20.8504C34.1544 22.156 35.1115 23.4256 36.0441 24.7133C36.5807 25.4537 36.5897 25.4781 37.4153 25.079C37.8384 24.8742 38.246 24.6064 38.5994 24.2974C38.9296 24.0077 38.9116 23.7978 38.6974 23.4115C38.2885 22.6737 37.8758 21.9371 37.4682 21.198C36.4853 19.4185 35.5049 17.639 34.5194 15.8608C34.4537 15.7411 34.3517 15.6406 34.2769 15.544H34.2744Z" fill="url(#paint4_linear_383_207)"/>
<path d="M53.8164 28.4385C52.6297 28.6831 52.3717 28.5479 52.4582 27.7251C52.7845 27.6736 53.1186 27.6002 53.4553 27.5796C53.5481 27.5745 53.7068 27.7058 53.739 27.805C53.8009 27.9994 53.7945 28.2157 53.8177 28.4385H53.8164Z" fill="url(#paint5_linear_383_207)"/>
<path d="M45.4811 42.2019C45.4888 41.8903 45.601 41.7435 45.9119 41.7075C46.8148 41.6045 47.7126 41.4487 48.6168 41.3572C49.0992 41.3083 49.5907 41.3482 50.086 41.3482C50.0757 41.5942 49.9377 41.6701 49.6849 41.6985C48.2879 41.8543 46.8935 42.0307 45.4823 42.2019H45.4811Z" fill="url(#paint6_linear_383_207)"/>
<path d="M88.9625 67.4151C88.6542 68.1155 88.3459 68.816 88.0376 69.5165C87.9899 69.5023 87.9435 69.4882 87.8957 69.4753C87.9086 69.3439 87.8816 69.1907 87.9409 69.0851C88.2621 68.5186 88.6039 67.9649 88.9393 67.4073C88.947 67.4099 88.9548 67.4125 88.9625 67.4151Z" fill="url(#paint7_linear_383_207)"/>
<path d="M62.4769 15.1681C62.6097 16.2214 62.7619 17.2734 62.8638 18.3305C62.909 18.7928 62.6278 18.955 62.1789 18.7915C61.8448 18.6692 61.5068 18.5558 61.1844 18.4078C61.0992 18.3691 61.0064 18.212 61.018 18.1219C61.1186 17.3004 61.3405 16.5098 61.7558 15.79C61.899 15.5415 62.1221 15.3393 62.3092 15.1166C62.3646 15.1346 62.4201 15.1513 62.4769 15.1694V15.1681Z" fill="url(#paint8_linear_383_207)"/>
<path d="M41.5572 14.1843C42.1157 14.2616 42.6471 14.3363 43.2392 14.4187C43.1644 14.7393 43.1128 15.0084 43.0367 15.2685C42.9116 15.6934 42.7684 16.1119 42.6355 16.5343C42.522 16.8948 42.2447 16.6424 42.028 16.7274C41.9132 15.8698 41.3714 15.1243 41.5585 14.1843H41.5572Z" fill="url(#paint9_linear_383_207)"/>
</g>
<defs>
<linearGradient id="paint0_linear_383_207" x1="37.9257" y1="24.0848" x2="89.1597" y2="66.4687" gradientUnits="userSpaceOnUse">
<stop stop-color="#1C374B"/>
<stop offset="1" stop-color="#10212D"/>
</linearGradient>
<linearGradient id="paint1_linear_383_207" x1="22.6916" y1="29.3024" x2="72.9392" y2="107.333" gradientUnits="userSpaceOnUse">
<stop stop-color="#1C374B"/>
<stop offset="1" stop-color="#10212D"/>
</linearGradient>
<linearGradient id="paint2_linear_383_207" x1="58.4285" y1="10.5518" x2="73.2658" y2="38.0194" gradientUnits="userSpaceOnUse">
<stop stop-color="#1C374B"/>
<stop offset="1" stop-color="#10212D"/>
</linearGradient>
<linearGradient id="paint3_linear_383_207" x1="37.9767" y1="8.91931" x2="49.8437" y2="28.7015" gradientUnits="userSpaceOnUse">
<stop stop-color="#1C374B"/>
<stop offset="1" stop-color="#10212D"/>
</linearGradient>
<linearGradient id="paint4_linear_383_207" x1="26.3762" y1="14.5463" x2="40.8738" y2="29.7062" gradientUnits="userSpaceOnUse">
<stop stop-color="#1C374B"/>
<stop offset="1" stop-color="#10212D"/>
</linearGradient>
<linearGradient id="paint5_linear_383_207" x1="52.5797" y1="27.5795" x2="53.2383" y2="28.7894" gradientUnits="userSpaceOnUse">
<stop stop-color="#1C374B"/>
<stop offset="1" stop-color="#10212D"/>
</linearGradient>
<linearGradient id="paint6_linear_383_207" x1="45.9391" y1="41.3329" x2="46.1401" y2="42.711" gradientUnits="userSpaceOnUse">
<stop stop-color="#1C374B"/>
<stop offset="1" stop-color="#10212D"/>
</linearGradient>
<linearGradient id="paint7_linear_383_207" x1="88.0019" y1="67.4073" x2="89.567" y2="68.4317" gradientUnits="userSpaceOnUse">
<stop stop-color="#1C374B"/>
<stop offset="1" stop-color="#10212D"/>
</linearGradient>
<linearGradient id="paint8_linear_383_207" x1="61.2012" y1="15.1166" x2="63.951" y2="16.8797" gradientUnits="userSpaceOnUse">
<stop stop-color="#1C374B"/>
<stop offset="1" stop-color="#10212D"/>
</linearGradient>
<linearGradient id="paint9_linear_383_207" x1="41.6906" y1="14.1843" x2="43.7371" y2="15.9695" gradientUnits="userSpaceOnUse">
<stop stop-color="#1C374B"/>
<stop offset="1" stop-color="#10212D"/>
</linearGradient>
<clipPath id="clip0_383_207">
<rect width="81.8007" height="88.5428" fill="white" transform="translate(14.5569 8.91919)"/>
</clipPath>
</defs>
</svg>
